<mxfile host="app.diagrams.net" modified="2022-05-17T15:11:24.208Z" agent="5.0 (Macintosh; Intel Mac OS X 10_15_7) AppleWebKit/537.36 (KHTML, like Gecko) Chrome/101.0.4951.64 Safari/537.36" etag="qArQWW6R2d4rDu45GmME" version="18.0.6" type="github">
  <diagram id="joRK9-NksgAie9dZ-h6Y" name="第 1 页">
    <mxGraphModel dx="650" dy="610" grid="1" gridSize="10" guides="1" tooltips="1" connect="1" arrows="1" fold="1" page="1" pageScale="1" pageWidth="827" pageHeight="1169" math="0" shadow="0">
      <root>
        <mxCell id="0" />
        <mxCell id="1" parent="0" />
        <mxCell id="HKJ5E1AOMavMJ8zKx0JY-6" style="rounded=0;orthogonalLoop=1;jettySize=auto;html=1;fontSize=26;entryX=1;entryY=0;entryDx=0;entryDy=0;fillColor=#6a00ff;strokeColor=#3700CC;" edge="1" parent="1" source="HKJ5E1AOMavMJ8zKx0JY-1" target="HKJ5E1AOMavMJ8zKx0JY-2">
          <mxGeometry relative="1" as="geometry">
            <mxPoint x="350" y="170" as="targetPoint" />
          </mxGeometry>
        </mxCell>
        <mxCell id="HKJ5E1AOMavMJ8zKx0JY-9" style="edgeStyle=none;rounded=0;orthogonalLoop=1;jettySize=auto;html=1;fontSize=26;fillColor=#6a00ff;strokeColor=#3700CC;" edge="1" parent="1" source="HKJ5E1AOMavMJ8zKx0JY-1" target="HKJ5E1AOMavMJ8zKx0JY-3">
          <mxGeometry relative="1" as="geometry" />
        </mxCell>
        <mxCell id="HKJ5E1AOMavMJ8zKx0JY-1" value="&lt;font style=&quot;font-size: 26px;&quot;&gt;10&lt;/font&gt;" style="ellipse;whiteSpace=wrap;html=1;aspect=fixed;fillColor=#6a00ff;fontColor=#ffffff;strokeColor=#3700CC;" vertex="1" parent="1">
          <mxGeometry x="370" y="100" width="50" height="50" as="geometry" />
        </mxCell>
        <mxCell id="HKJ5E1AOMavMJ8zKx0JY-7" style="rounded=0;orthogonalLoop=1;jettySize=auto;html=1;entryX=1;entryY=0;entryDx=0;entryDy=0;fontSize=26;fillColor=#6a00ff;strokeColor=#3700CC;" edge="1" parent="1" source="HKJ5E1AOMavMJ8zKx0JY-2" target="HKJ5E1AOMavMJ8zKx0JY-4">
          <mxGeometry relative="1" as="geometry" />
        </mxCell>
        <mxCell id="HKJ5E1AOMavMJ8zKx0JY-2" value="&lt;span style=&quot;font-size: 26px;&quot;&gt;9&lt;/span&gt;" style="ellipse;whiteSpace=wrap;html=1;aspect=fixed;fillColor=#6a00ff;fontColor=#ffffff;strokeColor=#3700CC;" vertex="1" parent="1">
          <mxGeometry x="310" y="170" width="50" height="50" as="geometry" />
        </mxCell>
        <mxCell id="HKJ5E1AOMavMJ8zKx0JY-3" value="&lt;span style=&quot;font-size: 26px;&quot;&gt;99&lt;/span&gt;" style="ellipse;whiteSpace=wrap;html=1;aspect=fixed;fillColor=#6a00ff;fontColor=#ffffff;strokeColor=#3700CC;" vertex="1" parent="1">
          <mxGeometry x="425" y="169" width="50" height="50" as="geometry" />
        </mxCell>
        <mxCell id="HKJ5E1AOMavMJ8zKx0JY-8" style="rounded=0;orthogonalLoop=1;jettySize=auto;html=1;fontSize=26;fillColor=#6a00ff;strokeColor=#3700CC;" edge="1" parent="1" source="HKJ5E1AOMavMJ8zKx0JY-4" target="HKJ5E1AOMavMJ8zKx0JY-5">
          <mxGeometry relative="1" as="geometry" />
        </mxCell>
        <mxCell id="HKJ5E1AOMavMJ8zKx0JY-4" value="&lt;span style=&quot;font-size: 26px;&quot;&gt;3&lt;/span&gt;" style="ellipse;whiteSpace=wrap;html=1;aspect=fixed;fillColor=#6a00ff;fontColor=#ffffff;strokeColor=#3700CC;" vertex="1" parent="1">
          <mxGeometry x="245" y="240" width="50" height="50" as="geometry" />
        </mxCell>
        <mxCell id="HKJ5E1AOMavMJ8zKx0JY-5" value="&lt;font style=&quot;font-size: 26px;&quot;&gt;1&lt;/font&gt;" style="ellipse;whiteSpace=wrap;html=1;aspect=fixed;fillColor=#6a00ff;fontColor=#ffffff;strokeColor=#3700CC;" vertex="1" parent="1">
          <mxGeometry x="190" y="310" width="50" height="50" as="geometry" />
        </mxCell>
      </root>
    </mxGraphModel>
  </diagram>
</mxfile>
